<svg aria-hidden="true" style="position: absolute; width: 0; height: 0; overflow: hidden;" version="1.1" xmlns="http://www.w3.org/2000/svg" xmlns:xlink="http://www.w3.org/1999/xlink">
<defs>
<symbol id="icon-logo" viewBox="0 0 58 32">
<path d="M0.705 31.491c-0.249-0.248-0.417-0.564-0.484-0.907s-0.028-0.699 0.11-1.020c0.138-0.322 0.37-0.596 0.666-0.786s0.643-0.29 0.996-0.285c0.3-0.004 0.595 0.072 0.855 0.218s0.477 0.359 0.628 0.615l-0.303 0.175c-0.115-0.209-0.286-0.383-0.494-0.502s-0.445-0.181-0.686-0.176c-0.194-0.007-0.387 0.026-0.568 0.097s-0.344 0.178-0.48 0.315c-0.261 0.274-0.406 0.636-0.406 1.013s0.145 0.739 0.406 1.013c0.136 0.137 0.3 0.244 0.48 0.315s0.374 0.104 0.568 0.097c0.24 0.004 0.478-0.057 0.686-0.176s0.379-0.293 0.494-0.502l0.303 0.17c-0.149 0.258-0.365 0.472-0.626 0.62s-0.557 0.223-0.857 0.219c-0.238 0.007-0.476-0.034-0.697-0.122s-0.422-0.22-0.59-0.388z"></path>
<path d="M5.287 31.622h1.663v0.32h-2.006v-3.394h1.982v0.319h-1.639v1.206h1.516v0.319h-1.516v1.229z"></path>
<path d="M9.972 32c-0.406-0.004-0.797-0.146-1.109-0.404s-0.523-0.613-0.6-1.008c-0.076-0.394-0.012-0.803 0.181-1.156s0.504-0.629 0.88-0.781c0.375-0.152 0.792-0.17 1.18-0.053s0.722 0.365 0.947 0.699c0.224 0.334 0.325 0.735 0.285 1.135s-0.219 0.773-0.506 1.057c-0.163 0.165-0.36 0.296-0.576 0.384s-0.449 0.13-0.682 0.126zM9.972 31.671c0.189 0.005 0.377-0.030 0.552-0.101s0.333-0.177 0.464-0.312c0.264-0.271 0.412-0.633 0.412-1.010s-0.148-0.739-0.412-1.010c-0.27-0.266-0.635-0.416-1.016-0.416s-0.746 0.15-1.016 0.416c-0.264 0.271-0.412 0.633-0.412 1.010s0.147 0.739 0.412 1.010c0.131 0.135 0.289 0.241 0.464 0.312s0.363 0.105 0.552 0.1z"></path>
<path d="M15.827 31.491c-0.249-0.248-0.417-0.564-0.484-0.907s-0.029-0.699 0.11-1.020c0.138-0.322 0.37-0.596 0.666-0.786s0.643-0.29 0.996-0.285c0.3-0.004 0.595 0.072 0.855 0.218s0.477 0.359 0.628 0.615l-0.304 0.175c-0.115-0.209-0.286-0.383-0.494-0.502s-0.445-0.181-0.686-0.176c-0.194-0.007-0.387 0.026-0.568 0.097s-0.344 0.178-0.48 0.315c-0.261 0.274-0.406 0.636-0.406 1.013s0.145 0.739 0.406 1.013c0.136 0.137 0.3 0.244 0.48 0.315s0.374 0.104 0.568 0.097c0.24 0.004 0.478-0.057 0.686-0.176s0.379-0.293 0.494-0.502l0.304 0.17c-0.149 0.258-0.365 0.472-0.626 0.62s-0.557 0.223-0.857 0.219c-0.238 0.007-0.476-0.034-0.697-0.122s-0.422-0.22-0.59-0.388z"></path>
<path d="M20.408 31.622h1.567v0.32h-1.905v-3.394h0.342l-0.004 3.073z"></path>
<path d="M23.194 28.551h0.343v2.237c0 0.543 0.343 0.88 0.931 0.88s0.929-0.339 0.929-0.88v-2.237h0.343v2.237c0.007 0.163-0.021 0.326-0.081 0.477s-0.153 0.289-0.272 0.403c-0.258 0.213-0.584 0.329-0.92 0.329s-0.662-0.116-0.92-0.329c-0.118-0.114-0.211-0.251-0.272-0.403s-0.089-0.314-0.081-0.477v-2.237z"></path>
<path d="M29.888 30.997c0 0.124-0.024 0.247-0.072 0.362s-0.118 0.219-0.207 0.307c-0.089 0.088-0.194 0.157-0.31 0.205s-0.24 0.072-0.366 0.072h-1.492v-3.394h1.38c0.243 0.002 0.476 0.098 0.648 0.268s0.269 0.401 0.271 0.642c0.006 0.145-0.028 0.289-0.099 0.416s-0.175 0.233-0.302 0.305c0.163 0.067 0.302 0.18 0.4 0.326s0.149 0.317 0.149 0.491zM27.783 28.87v1.182h1.039c0.076 0.001 0.151-0.013 0.22-0.042s0.133-0.072 0.185-0.126c0.055-0.056 0.099-0.122 0.128-0.194s0.044-0.15 0.043-0.228c0.001-0.077-0.014-0.154-0.044-0.225s-0.073-0.136-0.128-0.191c-0.051-0.056-0.113-0.101-0.183-0.131s-0.146-0.045-0.222-0.044h-1.039zM28.933 31.622c0.080 0.002 0.16-0.013 0.234-0.044s0.141-0.077 0.195-0.135c0.117-0.119 0.182-0.278 0.182-0.444s-0.065-0.325-0.182-0.444c-0.055-0.059-0.121-0.106-0.195-0.137s-0.154-0.047-0.235-0.046h-1.15v1.25h1.152z"></path>
<path d="M33.609 28.551h0.343v2.237c0 0.543 0.342 0.88 0.929 0.88s0.929-0.339 0.929-0.88v-2.237h0.343v2.237c0.007 0.163-0.020 0.326-0.081 0.477s-0.153 0.289-0.271 0.403c-0.259 0.213-0.584 0.329-0.921 0.329s-0.662-0.116-0.921-0.329c-0.118-0.114-0.21-0.251-0.271-0.403s-0.088-0.314-0.081-0.477v-2.237z"></path>
<path d="M40.253 31.942h-0.451l-1.605-1.643v1.643h-0.343v-3.394h0.343v1.55l1.557-1.55h0.45l-1.644 1.65 1.694 1.743z"></path>
<path d="M43.711 31.942l-0.803-1.358h-0.959v1.358h-0.343v-3.394h1.37c0.247-0.001 0.486 0.087 0.674 0.247s0.309 0.382 0.344 0.624c0.035 0.242-0.019 0.489-0.153 0.695s-0.339 0.357-0.576 0.425l0.838 1.4-0.392 0.003zM41.95 28.87v1.395h1.027c0.091 0.001 0.181-0.016 0.264-0.051s0.159-0.087 0.221-0.153c0.129-0.132 0.202-0.31 0.201-0.494 0.001-0.091-0.016-0.182-0.050-0.267s-0.086-0.162-0.151-0.227c-0.062-0.066-0.137-0.118-0.221-0.153s-0.174-0.052-0.264-0.051h-1.027z"></path>
<path d="M47.937 31.942l-0.318-0.833h-1.622l-0.319 0.833h-0.362l1.317-3.394h0.352l1.317 3.394h-0.365zM46.116 30.788h1.38l-0.69-1.816-0.691 1.816z"></path>
<path d="M49.651 28.551h0.343v3.394h-0.343v-3.394z"></path>
<path d="M53.92 28.551h0.341v3.394h-0.293l-1.905-2.765v2.765h-0.343v-3.394h0.293l1.905 2.765 0.001-2.765z"></path>
<path d="M56.335 31.622h1.665v0.32h-2.006v-3.394h1.981v0.319h-1.639v1.206h1.517v0.319h-1.517v1.229z"></path>
<path d="M46.811 0c-1.973-0.003-3.911 0.518-5.611 1.508l-3.907 2.234c-1.693-1.908-4.002-3.176-6.533-3.588s-5.129 0.056-7.351 1.325c-2.222 1.269-3.931 3.262-4.836 5.638s-0.951 4.989-0.13 7.395l-3.899 2.229c-1.069 0.627-2.291 0.95-3.533 0.933s-2.455-0.373-3.506-1.029c-1.051-0.656-1.898-1.586-2.449-2.688s-0.783-2.333-0.672-3.558 0.562-2.395 1.302-3.383c0.74-0.987 1.741-1.753 2.893-2.213s2.41-0.596 3.635-0.394 2.37 0.736 3.309 1.541c0.527-1.368 1.263-2.647 2.184-3.792-1.613-1.182-3.519-1.909-5.516-2.105s-4.010 0.148-5.825 0.995-3.365 2.164-4.485 3.812c-1.12 1.648-1.767 3.566-1.874 5.55s0.331 3.959 1.267 5.716c0.936 1.757 2.336 3.23 4.050 4.262s3.679 1.586 5.685 1.602c2.006 0.016 3.98-0.507 5.71-1.512l3.905-2.23c1.489 1.68 3.46 2.87 5.65 3.412s4.495 0.41 6.607-0.378 3.932-2.195 5.215-4.033c1.284-1.838 1.971-4.020 1.969-6.255-0.001-0.477-0.033-0.954-0.097-1.427l-4.348 2.484c-0.19 1.178-0.695 2.284-1.462 3.203s-1.771 1.617-2.904 2.023-2.355 0.502-3.539 0.281c-1.184-0.221-2.286-0.752-3.192-1.538l18.854-10.77c1.069-0.627 2.291-0.95 3.533-0.932s2.455 0.373 3.506 1.030c1.051 0.656 1.898 1.587 2.448 2.689s0.783 2.334 0.671 3.558c-0.112 1.225-0.563 2.395-1.303 3.382s-1.742 1.753-2.894 2.213c-1.152 0.46-2.41 0.596-3.635 0.393s-2.37-0.736-3.308-1.542c-0.526 1.368-1.263 2.647-2.184 3.792 1.412 1.034 3.052 1.721 4.784 2.005s3.509 0.158 5.182-0.369c1.674-0.527 3.197-1.439 4.445-2.662s2.186-2.721 2.736-4.373c0.549-1.651 0.696-3.408 0.427-5.126s-0.946-3.348-1.975-4.757c-1.029-1.409-2.381-2.556-3.945-3.347s-3.295-1.204-5.051-1.204l-0.004 0.001zM22.212 10.994c-0.002-1.283 0.369-2.539 1.070-3.619s1.701-1.936 2.881-2.466c1.18-0.531 2.49-0.713 3.772-0.526s2.483 0.737 3.457 1.583l-11.053 6.315c-0.084-0.424-0.127-0.855-0.127-1.287z"></path>
</symbol>
<symbol id="icon-menu" viewBox="0 0 43 32">
<path stroke-linecap="round" stroke-linejoin="round" stroke-width="5.333" d="M3.555 2.667h35.556M3.555 16h17.778M3.555 29.333h35.556"/>
</symbol>
<symbol id="icon-line-1" viewBox="0 0 32 32">
    <path stroke-linecap="round" stroke-linejoin="round" stroke-width="5.333" d="m2.667 2.667 26.667 26.667"/>
</symbol>
<symbol id="icon-line-2" viewBox="0 0 32 32">
    <path stroke-linecap="round" stroke-linejoin="round" stroke-width="5.333" d="M29.333 2.667 2.666 29.334"/>
</symbol>
<symbol id="icon-facebook" viewBox="0 0 16 32">
<path d="M10.667 17.633h3.809l1.524-6.133h-5.333v-3.067c0-1.579 0-3.067 3.048-3.067h2.286v-5.152c-0.497-0.066-2.373-0.215-4.354-0.215-4.137 0-7.075 2.541-7.075 7.207v4.293h-4.571v6.133h4.571l0.022 13.486h6.073v-13.486z"></path>
</symbol>
<symbol id="icon-linkidin" viewBox="0 0 34 32">
<path d="M7.069 3.557c-0 0.943-0.373 1.847-1.037 2.513s-1.562 1.041-2.5 1.040c-0.937-0-1.836-0.375-2.499-1.043s-1.034-1.572-1.034-2.515c0-0.943 0.373-1.847 1.036-2.514s1.562-1.041 2.5-1.040c0.937 0 1.836 0.376 2.499 1.043s1.034 1.572 1.034 2.515zM7.175 9.743h-7.069v22.257h7.069v-22.257zM18.344 9.743h-7.034v22.257h6.963v-11.679c0-6.506 8.43-7.111 8.43 0v11.679h6.981v-14.097c0-10.968-12.477-10.559-15.411-5.173l0.071-2.986z"></path>
</symbol>
<symbol id="icon-telegram" viewBox="0 0 36 32">
<path d="M32.409 0.219c0.426-0.194 0.893-0.261 1.351-0.194s0.891 0.266 1.255 0.575c0.363 0.309 0.643 0.718 0.81 1.184s0.216 0.972 0.141 1.465l-3.912 25.639c-0.379 2.473-2.891 3.891-4.99 2.659-1.756-1.031-4.364-2.618-6.709-4.275-1.173-0.829-4.766-3.485-4.324-5.375 0.379-1.616 6.416-7.688 9.866-11.298 1.354-1.418 0.736-2.236-0.862-0.932-3.972 3.239-10.345 8.165-12.453 9.552-1.859 1.223-2.829 1.431-3.988 1.223-2.115-0.38-4.076-0.969-5.676-1.687-2.163-0.969-2.058-4.182-0.002-5.118l29.494-13.419z"></path>
</symbol>
<symbol id="icon-youtube" viewBox="0 0 50 32">
<path d="M20.267 22.531l12.654-6.531-12.654-6.531v13.061zM48.451 5.486c0.317 1.023 0.536 2.395 0.683 4.136 0.171 1.742 0.244 3.244 0.244 4.55l0.146 1.829c0 4.767-0.39 8.272-1.073 10.514-0.609 1.959-2.024 3.222-4.218 3.766-1.146 0.283-3.243 0.479-6.461 0.61-3.169 0.152-6.071 0.218-8.753 0.218l-3.877 0.131c-10.216 0-16.579-0.348-19.090-0.958-2.194-0.544-3.608-1.807-4.218-3.766-0.317-1.023-0.536-2.395-0.683-4.136-0.171-1.741-0.244-3.244-0.244-4.55l-0.146-1.829c0-4.767 0.39-8.272 1.073-10.514 0.61-1.959 2.024-3.222 4.218-3.766 1.146-0.283 3.243-0.479 6.461-0.61 3.169-0.152 6.071-0.218 8.753-0.218l3.877-0.131c10.216 0 16.579 0.348 19.090 0.958 2.194 0.544 3.608 1.807 4.218 3.766z"></path>
</symbol>
<symbol id="icon-social-5" viewBox="0 0 32 32">
<path d="M16.008 19.103c1.723 0 3.12-1.389 3.12-3.103s-1.397-3.103-3.12-3.103-3.12 1.389-3.12 3.103c0 1.714 1.397 3.103 3.12 3.103z"></path>
<path d="M14.448 31.515h3.12l0.78-10.861h-4.68l0.78 10.861z"></path>
<path d="M15.992 0.485c-3.788 0.022-7.438 1.414-10.269 3.916s-4.651 5.943-5.119 9.682c-0.468 3.738 0.448 7.518 2.576 10.635s5.324 5.356 8.99 6.301l-0.234-3.289c-2.792-0.956-5.152-2.866-6.662-5.39s-2.070-5.498-1.583-8.395 1.992-5.527 4.245-7.425c2.254-1.897 5.111-2.939 8.063-2.939s5.81 1.041 8.063 2.939c2.254 1.897 3.758 4.528 4.245 7.425s-0.073 5.871-1.583 8.395c-1.51 2.524-3.87 4.434-6.662 5.39l-0.234 3.289c3.668-0.945 6.864-3.186 8.992-6.304s3.043-6.9 2.573-10.639c-0.47-3.739-2.292-7.181-5.127-9.682s-6.487-3.89-10.276-3.909z"></path>
<path d="M21.171 12.292c0.232 0.329 0.425 0.683 0.577 1.055 0.159 0.375 0.28 0.765 0.359 1.164 0.094 0.407 0.141 0.824 0.14 1.241 0 0.423-0.047 0.844-0.14 1.257-0.079 0.399-0.2 0.789-0.359 1.164-0.152 0.372-0.345 0.726-0.577 1.055-0.169 0.233-0.351 0.456-0.546 0.667l-0.296 4.065c0.311-0.142 0.613-0.302 0.905-0.481 1.012-0.661 1.881-1.515 2.558-2.513 0.339-0.487 0.626-1.007 0.858-1.552 0.241-0.565 0.424-1.152 0.546-1.753 0.117-0.629 0.169-1.269 0.156-1.908-0.006-0.631-0.074-1.26-0.203-1.877-0.235-1.183-0.696-2.31-1.357-3.32-0.336-0.494-0.718-0.956-1.139-1.381-0.423-0.423-0.888-0.803-1.388-1.133-0.492-0.336-1.014-0.627-1.56-0.869-0.591-0.219-1.202-0.381-1.825-0.481-1.241-0.248-2.519-0.248-3.759 0-0.606 0.123-1.197 0.31-1.763 0.559-0.548 0.231-1.071 0.516-1.56 0.853-0.5 0.33-0.965 0.709-1.388 1.133-0.445 0.402-0.853 0.843-1.217 1.319-0.678 1.007-1.154 2.134-1.404 3.32-0.114 0.619-0.166 1.248-0.156 1.877-0.001 0.63 0.062 1.259 0.187 1.877 0.122 0.601 0.305 1.189 0.546 1.753 0.232 0.545 0.519 1.065 0.858 1.552 0.679 0.986 1.536 1.838 2.527 2.513 0.291 0.179 0.594 0.339 0.905 0.481l-0.343-4.034c-0.195-0.212-0.377-0.434-0.546-0.667-0.232-0.329-0.425-0.683-0.577-1.055-0.159-0.375-0.28-0.764-0.359-1.164-0.073-0.415-0.099-0.836-0.078-1.257-0.006-0.417 0.036-0.833 0.125-1.241 0.079-0.399 0.199-0.789 0.359-1.164 0.152-0.372 0.345-0.726 0.577-1.055 0.228-0.34 0.489-0.657 0.78-0.946 0.281-0.278 0.59-0.527 0.92-0.745 0.331-0.23 0.687-0.423 1.061-0.574 0.376-0.163 0.768-0.288 1.17-0.372 0.83-0.155 1.682-0.155 2.511 0 0.402 0.084 0.794 0.209 1.17 0.372 0.748 0.293 1.424 0.742 1.981 1.319 0.29 0.286 0.546 0.603 0.764 0.946z"></path>
</symbol>
<symbol id="icon-social-6" viewBox="0 0 32 32">
<path d="M24.813 8.584v2.172c0 1.055-0.853 1.924-1.939 1.924-1.071 0-1.939-0.869-1.939-1.924v-2.172c0-0.514 0.204-1.008 0.568-1.371s0.857-0.568 1.371-0.568c1.086 0 1.939 0.869 1.939 1.939zM17.939 10.352v11.28c0 0.514-0.204 1.008-0.568 1.371s-0.857 0.568-1.371 0.568-1.008-0.204-1.371-0.568c-0.364-0.364-0.568-0.857-0.568-1.371v-11.28c0-1.055 0.869-1.939 1.939-1.939s1.939 0.884 1.939 1.939zM31.515 14.914v2.172c0 1.055-0.869 1.924-1.939 1.924s-1.939-0.869-1.939-1.924v-2.172c0-1.071 0.869-1.924 1.939-1.924s1.939 0.853 1.939 1.924zM4.364 14.914v2.172c0 1.055-0.869 1.924-1.939 1.924-1.086 0-1.939-0.869-1.939-1.924v-2.172c0-1.071 0.853-1.924 1.939-1.924 1.071 0 1.939 0.853 1.939 1.924zM11.066 21.244v2.157c0 1.055-0.869 1.908-1.939 1.908s-1.939-0.853-1.939-1.908v-2.157c0-1.086 0.869-1.939 1.939-1.939 0.514 0 1.008 0.204 1.371 0.568s0.568 0.857 0.568 1.371zM17.939 27.419v2.157c0 0.514-0.204 1.008-0.568 1.371s-0.857 0.568-1.371 0.568-1.008-0.204-1.371-0.568c-0.364-0.364-0.568-0.857-0.568-1.371v-2.157c0-0.514 0.204-1.008 0.568-1.371s0.857-0.568 1.371-0.568 1.008 0.204 1.371 0.568c0.364 0.364 0.568 0.857 0.568 1.371zM17.939 2.424v2.157c0 0.514-0.204 1.008-0.568 1.371s-0.857 0.568-1.371 0.568-1.008-0.204-1.371-0.568c-0.364-0.364-0.568-0.857-0.568-1.371v-2.157c0-1.086 0.869-1.939 1.939-1.939 0.514 0 1.008 0.204 1.371 0.568s0.568 0.857 0.568 1.371zM24.813 16.527v6.873c0 1.071-0.853 1.908-1.939 1.908-1.071 0-1.939-0.838-1.939-1.908v-6.873c0-1.086 0.869-1.939 1.939-1.939 1.086 0 1.939 0.853 1.939 1.939zM11.066 8.584v6.873c0 1.086-0.869 1.939-1.939 1.939-0.255 0-0.507-0.050-0.742-0.148s-0.449-0.24-0.629-0.42c-0.18-0.18-0.323-0.394-0.42-0.629s-0.148-0.488-0.148-0.742v-6.873c0-0.514 0.204-1.008 0.568-1.371s0.857-0.568 1.371-0.568c0.514 0 1.008 0.204 1.371 0.568s0.568 0.857 0.568 1.371z"></path>
</symbol>
</defs>
</svg>
